<svg width="463" height="138" viewBox="0 0 463 138" fill="none" xmlns="http://www.w3.org/2000/svg">
<path d="M451.089 40.3684C452.365 38.2598 453.003 35.2911 453.003 31.4624V13.7336H462.991V61.0935C462.991 63.3131 462.769 65.061 462.325 66.3372C461.881 67.669 460.994 68.6678 459.662 69.3336C458.386 69.9995 456.443 70.3324 453.835 70.3324H429.781V60.3444H453.003V46.1115C451.782 48.442 449.868 50.6061 447.26 52.6037C444.652 54.6013 441.656 55.6001 438.271 55.6001C435.052 55.6556 432.111 54.962 429.448 53.5193C426.785 52.0211 424.648 49.9402 423.039 47.2767C421.485 44.5578 420.708 41.5059 420.708 38.121V13.7336H430.697V33.9594C430.697 37.7326 431.307 40.5903 432.528 42.5324C433.804 44.4191 436.162 45.4179 439.603 45.5288C441.989 45.6398 444.18 45.3346 446.178 44.6133C448.176 43.8919 449.813 42.4769 451.089 40.3684Z" fill="white"/>
<path d="M397.274 13.7336C400.437 13.7336 403.406 14.2608 406.18 15.315C408.955 16.3693 411.202 17.9508 412.922 20.0594C414.698 22.1679 415.586 24.7204 415.586 27.7169V55.7666H405.598V32.8773C405.542 31.0462 405.07 29.4648 404.183 28.133C403.35 26.7458 402.129 25.6915 400.52 24.9701C398.967 24.1933 397.135 23.8049 395.027 23.8049C393.362 23.8604 391.809 24.443 390.366 25.5528C388.979 26.6071 387.841 28.2163 386.953 30.3803C386.121 32.4889 385.705 35.0414 385.705 38.0378V55.7666H375.717V33.3767C375.717 31.3791 375.273 29.6312 374.385 28.133C373.553 26.6348 372.332 25.525 370.723 24.8037C369.169 24.0268 367.366 23.6939 365.312 23.8049C363.648 23.8604 362.122 24.5817 360.735 25.9689C359.403 27.3007 358.349 29.1318 357.572 31.4624C356.795 33.7929 356.406 36.4009 356.406 39.2863V55.7666H346.418V14.6492H356.406L356.323 23.3055C356.601 21.9737 357.267 20.5588 358.321 19.0606C359.375 17.5624 360.735 16.3139 362.399 15.315C364.119 14.2608 366.006 13.7336 368.059 13.7336C371.5 13.7336 374.44 14.6492 376.882 16.4803C379.323 18.3115 380.905 20.9749 381.626 24.4707C382.07 23.361 382.431 22.5841 382.708 22.1402C384.096 19.9761 386.093 18.034 388.701 16.3138C391.309 14.5937 394.167 13.7336 397.274 13.7336Z" fill="white"/>
<path d="M318.476 13.7336C321.639 13.7336 324.607 14.2608 327.382 15.315C330.156 16.3693 332.403 17.9508 334.124 20.0594C335.899 22.1679 336.787 24.7204 336.787 27.7169V55.7666H326.799V32.8773C326.744 31.0462 326.272 29.4648 325.384 28.133C324.552 26.7458 323.331 25.6915 321.722 24.9701C320.168 24.1933 318.337 23.8049 316.228 23.8049C314.564 23.8604 313.01 24.443 311.567 25.5528C310.18 26.6071 309.043 28.2163 308.155 30.3803C307.322 32.4889 306.906 35.0414 306.906 38.0378V55.7666H296.918V33.3767C296.918 31.3791 296.474 29.6312 295.586 28.133C294.754 26.6348 293.533 25.525 291.924 24.8037C290.37 24.0268 288.567 23.6939 286.514 23.8049C284.849 23.8604 283.323 24.5817 281.936 25.9689C280.604 27.3007 279.55 29.1318 278.773 31.4624C277.996 33.7929 277.608 36.4009 277.608 39.2863V55.7666H267.62V14.6492H277.608L277.525 23.3055C277.802 21.9737 278.468 20.5588 279.522 19.0606C280.577 17.5624 281.936 16.3139 283.601 15.315C285.321 14.2608 287.208 13.7336 289.261 13.7336C292.701 13.7336 295.642 14.6492 298.083 16.4803C300.525 18.3115 302.106 20.9749 302.828 24.4707C303.272 23.361 303.632 22.5841 303.91 22.1402C305.297 19.9761 307.295 18.034 309.903 16.3138C312.511 14.5937 315.368 13.7336 318.476 13.7336Z" fill="white"/>
<path d="M227.406 45.1954C228.904 46.2497 231.179 46.8046 234.231 46.8601C236.506 46.9156 238.643 46.4162 240.64 45.3619C242.693 44.2521 244.358 42.4764 245.634 40.0349C246.966 37.5379 247.632 34.375 247.632 30.5463V14.6487H257.62V55.7661H247.632L247.715 47.3595C246.494 49.69 244.552 51.8818 241.889 53.9349C239.281 55.9325 236.284 56.9313 232.9 56.9313C229.903 56.9313 226.99 56.4597 224.16 55.5164C221.386 54.5176 219.027 52.7142 217.085 50.1062C215.199 47.4427 214.255 43.8359 214.255 39.2858V14.6487H224.243V33.9589C224.132 36.8443 224.271 39.1748 224.659 40.9505C225.048 42.6707 225.963 44.0856 227.406 45.1954Z" fill="white"/>
<path d="M164.243 10.0713V45.6952H177.976C182.249 45.6952 185.634 45.0849 188.131 43.8641C190.683 42.5878 192.514 40.6457 193.624 38.0377C194.789 35.3743 195.372 31.823 195.372 27.3838C195.372 23.0557 194.706 19.6431 193.374 17.1461C192.043 14.5936 190.128 12.7902 187.631 11.7359C185.134 10.6262 181.971 10.0713 178.143 10.0713H164.243ZM193.125 52.5204C189.074 54.6845 184.025 55.7665 177.976 55.7665H154.088V0H178.226C183.83 0 188.658 1.02655 192.709 3.07964C196.815 5.07725 199.95 8.12915 202.114 12.2353C204.334 16.286 205.443 21.3355 205.443 27.3838C205.443 33.4876 204.417 38.6759 202.364 42.9485C200.311 47.1657 197.231 50.3563 193.125 52.5204Z" fill="white"/>
<path d="M0.771484 126.717V31.6455H22.5493V11.8799L98.7715 12.0432V35.566L57.4912 35.4026L98.7715 76.5674V126.88L0.771484 126.717ZM75.3685 103.194V87.1853L24.1745 36.056V103.194H75.3685Z" fill="white"/>
<path d="M197.344 92.4V102.84C197.344 115.656 188.848 123.576 176.176 123.576C163.72 123.576 155.44 115.296 155.44 102.84V92.4C155.44 79.584 163.936 71.664 176.608 71.664C189.064 71.664 197.344 79.944 197.344 92.4ZM161.704 92.4V102.84C161.704 111.48 167.464 117.384 176.392 117.384C185.32 117.384 191.08 111.48 191.08 102.84V92.4C191.08 83.76 185.32 77.856 176.392 77.856C167.464 77.856 161.704 83.76 161.704 92.4ZM222.189 71.88H226.149C235.725 71.88 242.133 78.288 242.133 88.224C242.133 97.8 235.725 104.928 226.149 104.928H206.493V123H200.229V93.84C200.229 80.664 209.013 71.88 222.189 71.88ZM206.493 93.912V98.736H226.005C231.909 98.736 235.869 94.056 235.869 87.936C235.869 82.032 231.909 78.072 226.005 78.072H222.333C212.829 78.072 206.493 84.408 206.493 93.912ZM261.362 94.416H268.49C290.954 94.416 291.746 123 267.05 123H245.45V116.808H267.122C282.602 116.808 281.738 100.608 268.706 100.608H261.578C239.114 100.608 238.322 72.528 263.018 72.528H281.738V78.72H262.946C246.746 78.72 247.682 94.416 261.362 94.416Z" fill="white"/>
</svg>
